<svg width="64" height="64" viewBox="0 0 64 64" fill="none" xmlns="http://www.w3.org/2000/svg">
<rect width="64" height="64" rx="32" fill="#2147CC"/>
<path fill-rule="evenodd" clip-rule="evenodd" d="M31.09 19.5C29.3357 19.5 27.9137 20.9221 27.9137 22.6763C27.9137 22.9305 27.7383 23.2697 27.3193 23.4973C27.1904 23.5673 27.0632 23.6401 26.9379 23.7157C26.52 23.9676 26.1277 23.9514 25.8974 23.8196C24.3676 22.9443 22.4183 23.4667 21.5311 24.9895L20.6506 26.501C19.7617 28.0268 20.2862 29.9846 21.8189 30.8615C22.0412 30.9887 22.2501 31.3121 22.2399 31.7933C22.2385 31.862 22.2377 31.9309 22.2377 32C22.2377 32.0691 22.2385 32.138 22.2399 32.2068C22.2501 32.688 22.0412 33.0113 21.819 33.1385C20.2863 34.0154 19.7617 35.9732 20.6506 37.499L21.5312 39.0105C22.4183 40.5333 24.3677 41.0557 25.8974 40.1804C26.1278 40.0486 26.52 40.0324 26.9379 40.2843C27.0632 40.3599 27.1904 40.4327 27.3193 40.5027C27.7383 40.7303 27.9137 41.0695 27.9137 41.3237C27.9137 43.0779 29.3357 44.5 31.09 44.5H32.9133C34.6675 44.5 36.0896 43.0779 36.0896 41.3237C36.0896 41.0695 36.2649 40.7303 36.6839 40.5027C36.8128 40.4327 36.94 40.3599 37.0653 40.2844C37.4832 40.0324 37.8755 40.0486 38.1058 40.1804C39.6355 41.0557 41.5849 40.5334 42.4721 39.0105L43.3526 37.499C44.2415 35.9732 43.7169 34.0154 42.1843 33.1385C41.9621 33.0113 41.7531 32.688 41.7633 32.2068C41.7648 32.138 41.7655 32.0691 41.7655 32C41.7655 31.9309 41.7648 31.862 41.7633 31.7933C41.7531 31.3121 41.9621 30.9887 42.1843 30.8615C43.717 29.9846 44.2416 28.0267 43.3527 26.5009L42.4721 24.9895C41.585 23.4667 39.6356 22.9443 38.1058 23.8196C37.8755 23.9514 37.4832 23.9676 37.0653 23.7157C36.94 23.6401 36.8128 23.5673 36.6839 23.4973C36.2649 23.2697 36.0896 22.9305 36.0896 22.6763C36.0896 20.9221 34.6675 19.5 32.9133 19.5H31.09ZM32.0015 28.25C29.9305 28.25 28.2515 29.9289 28.2515 32C28.2515 34.0711 29.9305 35.75 32.0015 35.75C34.0726 35.75 35.7515 34.0711 35.7515 32C35.7515 29.9289 34.0726 28.25 32.0015 28.25Z" fill="white"/>
</svg>
