<svg width="41" height="41" viewBox="0 0 41 41" fill="none" xmlns="http://www.w3.org/2000/svg">
<g id="material-symbols:keyboard">
<path id="Vector" d="M32.936 10.6048L26.3286 3.99737C25.6953 3.35422 24.8283 2.99579 23.9259 3.00004H12.4C10.5243 3.0057 9.00566 4.52436 9 6.40003V33.6C9.00567 35.4757 10.5243 36.9943 12.4 37H30.5333C32.409 36.9943 33.9276 35.4757 33.9333 33.6V13.0075C33.9376 12.105 33.5791 11.238 32.936 10.6048ZM29.4 29.0667C29.3943 30.9423 27.8757 32.461 26 32.4667H16.9333C15.0577 32.461 13.539 30.9423 13.5333 29.0667V20C13.539 18.1243 15.0577 16.6057 16.9333 16.6H26C27.8757 16.6057 29.3943 18.1243 29.4 20V29.0667ZM23.7333 27.9333H27.1333V29.0667C27.1319 29.6914 26.6247 30.1986 26 30.2H23.7333V27.9333ZM15.8 27.9333H21.4667V30.2H16.9333C16.3086 30.1986 15.8014 29.6914 15.8 29.0667V27.9333ZM15.8 23.4H27.1333V25.6667H15.8V23.4ZM19.2 21.1334H15.8V20C15.8014 19.3753 16.3086 18.8681 16.9333 18.8667H19.2V21.1334ZM27.1333 20V21.1334H21.4667V18.8667H26C26.6247 18.8681 27.1319 19.3753 27.1333 20Z" fill="#3356D0"/>
</g>
</svg>
