<svg width="128" height="24" viewBox="0 0 128 24" fill="none" xmlns="http://www.w3.org/2000/svg">
<path d="M44.3008 1.16504H48.9883V22.8432H44.3008V1.16504Z" fill="#2046D1"/>
<path d="M72.8333 16.1606C71.9615 20.2043 68.9129 23.15 63.4843 23.15C56.6104 23.15 53.3605 18.2852 53.3605 12.1186C53.3605 6.17586 56.7138 0.850586 63.7093 0.850586C69.4815 0.850586 72.2798 4.23916 72.8092 7.86262H68.1217C67.6693 6.19179 66.5062 4.52646 63.5596 4.52646C59.694 4.52646 58.2013 8.00337 58.2013 11.9486C58.2013 15.6132 59.4965 19.4741 63.6855 19.4741C66.7442 19.4741 67.7098 17.4251 68.1182 16.1606H72.8333Z" fill="#2046D1"/>
<path d="M91.0674 13.4937H81.2796V19.0011H92.1364L91.5803 22.8429H76.7305V1.16504H91.5227V5.00687H81.2796V9.65154H91.0674V13.4937Z" fill="#2046D1"/>
<path d="M95.7763 1.16602H100.464V19.0021H110.104L109.568 22.8442H95.7763V1.16602Z" fill="#2046D1"/>
<path d="M113.176 1.16602H117.864V19.0021H127.504L126.968 22.8442H113.176V1.16602Z" fill="#2046D1"/>
<path d="M32.2701 23.1093C31.4238 23.1093 30.5764 22.7493 29.9456 22.1214C29.3261 21.5054 28.973 20.6944 28.9768 19.8965C28.9782 19.6217 28.9638 19.3503 28.9487 19.063C28.9339 18.7875 28.9197 18.5159 28.9189 18.2445C28.9134 16.4984 28.9145 12.9861 28.9154 11.2397L28.9163 9.74295C28.9165 9.20223 28.9806 8.58215 29.455 8.08573C29.8642 7.65738 30.3322 7.44046 30.8457 7.44046C31.0331 7.44046 31.228 7.47 31.4244 7.5285C32.1479 7.74514 32.6153 8.28268 32.7769 9.08377C32.8227 9.3117 32.823 9.54166 32.823 9.74469C32.8253 11.688 32.825 15.3972 32.825 17.3409L32.8247 19.1125H35.7264L35.729 17.2372C35.7328 15.1534 35.7357 11.357 35.7172 9.34733C35.7122 8.83325 35.6329 8.27949 35.4872 7.74572C34.9714 5.85188 33.4016 4.62244 31.3911 4.53729C31.2544 4.5315 31.1197 4.5286 30.9879 4.5286C30.3983 4.5286 29.8532 4.58652 29.3678 4.70093C27.5484 5.12957 26.4936 6.31209 26.1426 8.31569C26.0794 8.67656 26.0496 9.0719 26.0487 9.56078C26.0429 12.3385 26.0435 16.8821 26.0441 19.6596L26.0444 23.0638H22.1938L22.1698 22.6082C22.1623 22.4854 22.155 22.3693 22.155 22.2529C22.1536 18.517 22.1536 13.0151 22.1542 9.27956C22.1542 7.88908 22.4163 6.59853 22.9324 5.44352C23.8259 3.44541 25.3394 2.08912 27.4311 1.41198C28.5791 1.04011 29.7408 0.851562 30.8845 0.851562C32.0233 0.851562 33.1656 1.03866 34.2798 1.40706C37.2284 2.38366 38.9824 4.52918 39.4932 7.78482C39.5732 8.29571 39.6114 8.86713 39.6131 9.58337C39.621 12.2725 39.6198 16.7272 39.6192 19.4163L39.6184 23.0945H38.7706C38.1254 23.0945 37.4801 23.0907 36.8348 23.087C36.2043 23.0832 35.5645 23.0795 34.9221 23.0795C33.9218 23.0795 33.1039 23.0887 32.348 23.1084L32.2701 23.1093Z" fill="#2046D1"/>
<path d="M8.73526 23.1096C7.59618 23.1096 6.4542 22.9225 5.34002 22.5541C2.39139 21.5775 0.637437 19.432 0.126544 16.1763C0.0466086 15.6654 0.0083788 15.094 0.00635145 14.3778C-0.00117872 11.6886 -0.000309985 7.23367 0.00055888 4.54453L0.00142782 0.866623H0.849151C1.49443 0.866623 2.13942 0.870388 2.78469 0.874153C3.42563 0.877918 4.0625 0.881683 4.70257 0.881683C5.70118 0.881683 6.51763 0.872415 7.2718 0.852431L7.34971 0.851562C8.19569 0.851562 9.04313 1.21156 9.67421 1.83946C10.2934 2.45578 10.6468 3.26672 10.6427 4.06463C10.6416 4.33919 10.6557 4.61027 10.6711 4.89729C10.6856 5.17272 10.7001 5.44496 10.7009 5.71634C10.7064 7.46276 10.7053 10.975 10.7041 12.7214L10.7032 14.2179C10.7032 14.7589 10.6392 15.379 10.1648 15.8754C9.75531 16.3035 9.28757 16.5207 8.77407 16.5207C8.58639 16.5207 8.39177 16.4911 8.19541 16.4323C7.47193 16.2163 7.00419 15.6785 6.84287 14.8774C6.79711 14.6494 6.79682 14.4195 6.79682 14.2164C6.79451 12.2731 6.79479 8.5639 6.79479 6.62025L6.79508 4.84834H3.89336L3.89047 6.72393C3.88699 8.80776 3.8841 12.6041 3.90263 14.6138C3.90756 15.1276 3.98691 15.6816 4.1323 16.2154C4.64841 18.1093 6.21816 19.3384 8.22871 19.4238C8.36541 19.4296 8.50009 19.4325 8.63187 19.4325C9.22153 19.4325 9.7666 19.3743 10.252 19.2605C12.0714 18.8316 13.1262 17.649 13.4772 15.6454C13.5401 15.2846 13.5702 14.8892 13.5711 14.4004C13.5769 11.6226 13.5763 7.07901 13.5757 4.30125L13.5754 0.897323H17.4259L17.4497 1.35261C17.4575 1.4757 17.4647 1.59184 17.4647 1.70826C17.4662 5.44409 17.4662 10.946 17.4656 14.6816C17.4656 16.0721 17.2035 17.3626 16.6874 18.5176C15.7939 20.5154 14.2804 21.8723 12.1884 22.5494C11.0406 22.921 9.87898 23.1096 8.73526 23.1096Z" fill="#2046D1"/>
</svg>
