<svg width="64" height="64" viewBox="0 0 64 64" fill="none" xmlns="http://www.w3.org/2000/svg">
<rect width="64" height="64" rx="32" fill="#2147CC"/>
<path d="M22 31C22 30.4477 22.4477 30 23 30C23.5523 30 24 30.4477 24 31V40C24 40.5523 23.5523 41 23 41C22.4477 41 22 40.5523 22 40V31Z" fill="white"/>
<path fill-rule="evenodd" clip-rule="evenodd" d="M21.25 31C21.25 30.0335 22.0335 29.25 23 29.25C23.9665 29.25 24.75 30.0335 24.75 31V40C24.75 40.9665 23.9665 41.75 23 41.75C22.0335 41.75 21.25 40.9665 21.25 40V31ZM23 30.75C22.8619 30.75 22.75 30.8619 22.75 31V40C22.75 40.1381 22.8619 40.25 23 40.25C23.1381 40.25 23.25 40.1381 23.25 40V31C23.25 30.8619 23.1381 30.75 23 30.75Z" fill="white"/>
<path d="M27 39.2222V31.4937C27 31.1683 27.2506 30.9149 27.5432 30.9282C28.7724 30.9843 29.5615 30.7523 30 29.7778C31 28.1111 31.7521 27.827 32.5 27C34 25.3333 34.5 23.6667 34.6882 23.0308C34.8289 22.5556 35 22 35.5 22C36.1875 22 36.6758 22.9037 36.5 24.7778C36.3613 26.2562 35.5 28.6667 35 29.7778H40C41.3773 29.9305 41.8105 30.4231 42 32V35.3333C42 37.5556 40.5 42 39 42H32C32 42 31 42 30 40.8889C29.314 40.1267 28.1574 39.8873 27.4987 39.8122C27.224 39.7808 27 39.529 27 39.2222Z" fill="white"/>
<path fill-rule="evenodd" clip-rule="evenodd" d="M34.3218 21.9422C34.5273 21.6106 34.9019 21.25 35.5 21.25C36.2517 21.25 36.7624 21.7701 37.0191 22.405C37.2687 23.0224 37.34 23.8531 37.2467 24.8478C37.1696 25.6693 36.8995 26.7034 36.6001 27.6432C36.4456 28.1281 36.2786 28.6021 36.1172 29.0278H40C40.0276 29.0278 40.0552 29.0293 40.0827 29.0323C40.8288 29.1151 41.5125 29.3059 42.0039 29.8543C42.4733 30.3779 42.6473 31.1004 42.7446 31.9105C42.7482 31.9402 42.75 31.9701 42.75 32V35.3333C42.75 36.5682 42.3445 38.3325 41.7577 39.7815C41.4628 40.5096 41.1039 41.2045 40.6933 41.7317C40.3122 42.221 39.7424 42.75 39 42.75H32V42C32 42.75 31.9996 42.75 31.9992 42.75H31.9983L31.9965 42.75L31.9927 42.75L31.9839 42.7499L31.9617 42.7492C31.9449 42.7486 31.9241 42.7476 31.8997 42.7458C31.8508 42.7422 31.7871 42.7355 31.7105 42.7234C31.5576 42.6991 31.3529 42.6527 31.1145 42.5644C30.6339 42.3864 30.0294 42.0427 29.4425 41.3906C28.956 40.8501 28.0525 40.6302 27.4137 40.5573C26.735 40.4799 26.25 39.8845 26.25 39.2222V31.4937C26.25 30.7971 26.8032 30.1437 27.5774 30.179C28.1548 30.2053 28.5241 30.156 28.7742 30.0494C28.9874 29.9587 29.1652 29.8053 29.3161 29.47C29.3281 29.4432 29.3418 29.4171 29.3569 29.3919C29.8948 28.4953 30.3774 27.9545 30.8304 27.528C30.9887 27.379 31.1481 27.2399 31.2914 27.1148C31.3426 27.0702 31.3917 27.0273 31.438 26.9864C31.6212 26.8246 31.784 26.6735 31.9431 26.4977C33.3296 24.9568 33.7909 23.4199 33.9691 22.8179C33.9711 22.811 33.9732 22.8041 33.9753 22.7969C34.0399 22.5783 34.1423 22.232 34.3218 21.9422ZM35.5082 22.9276C35.474 23.021 35.4431 23.1231 35.4074 23.2437C35.2092 23.9133 34.6705 25.7095 33.0575 27.5017L33.0563 27.503C32.8416 27.7405 32.6301 27.9348 32.431 28.1107C32.371 28.1637 32.3137 28.2137 32.258 28.2623C32.1218 28.3811 31.9947 28.492 31.8587 28.6201C31.5041 28.9539 31.1171 29.3804 30.6641 30.1288C30.3764 30.7451 29.9467 31.1804 29.362 31.4295C28.87 31.639 28.3178 31.6946 27.75 31.6851V39.088C28.4729 39.1878 29.7391 39.4778 30.5575 40.3872C30.9706 40.8462 31.3661 41.058 31.6355 41.1578C31.7721 41.2084 31.8799 41.2315 31.9457 41.2419C31.9786 41.2471 32.0007 41.2492 32.0105 41.2499C32.0111 41.2499 32.0116 41.25 32.0122 41.25H39C39.0076 41.25 39.1878 41.2235 39.5099 40.81C39.8024 40.4344 40.0997 39.8793 40.3673 39.2185C40.9055 37.8897 41.25 36.3207 41.25 35.3333V32.0458C41.1579 31.3107 41.0232 31.0074 40.8869 30.8554C40.7726 30.7278 40.5579 30.5988 39.9572 30.5278H35C34.7455 30.5278 34.5084 30.3987 34.3702 30.185C34.232 29.9713 34.2116 29.7021 34.3161 29.47C34.5526 28.9443 34.8831 28.0911 35.1709 27.1878C35.4618 26.275 35.6916 25.3647 35.7533 24.7077C35.8358 23.8284 35.7509 23.2702 35.6284 22.9672C35.6011 22.8997 35.5747 22.8516 35.5525 22.818C35.5387 22.8485 35.5239 22.8848 35.5082 22.9276Z" fill="white"/>
</svg>
