<svg width="64" height="64" viewBox="0 0 64 64" fill="none" xmlns="http://www.w3.org/2000/svg">
<rect width="64" height="64" rx="32" fill="white"/>
<path d="M26.7068 26.1537C26.7068 27.8221 25.3543 29.1746 23.6859 29.1746C22.0175 29.1746 20.665 27.8221 20.665 26.1537C20.665 24.4853 22.0175 23.1328 23.6859 23.1328C25.3543 23.1328 26.7068 24.4853 26.7068 26.1537Z" fill="#2147CC"/>
<path fill-rule="evenodd" clip-rule="evenodd" d="M23.685 24.2657C22.6422 24.2657 21.7969 25.111 21.7969 26.1537C21.7969 27.1965 22.6422 28.0418 23.685 28.0418C24.7277 28.0418 25.573 27.1965 25.573 26.1537C25.573 25.111 24.7277 24.2657 23.685 24.2657ZM19.5312 26.1537C19.5312 23.8597 21.3909 22 23.685 22C25.979 22 27.8387 23.8597 27.8387 26.1537C27.8387 28.4478 25.979 30.3074 23.685 30.3074C21.3909 30.3074 19.5312 28.4478 19.5312 26.1537Z" fill="#2147CC"/>
<path d="M31.2372 41.2592H16.1328C16.1328 38.7418 17.6433 33.707 23.685 33.707C29.7268 33.707 31.2372 38.7418 31.2372 41.2592Z" fill="#2147CC"/>
<path fill-rule="evenodd" clip-rule="evenodd" d="M16.7239 35.8733C18.0668 34.0082 20.295 32.5703 23.6851 32.5703C27.0752 32.5703 29.3033 34.0082 30.6462 35.8733C31.9474 37.6806 32.3701 39.8154 32.3701 41.2554C32.3701 41.881 31.8629 42.3882 31.2373 42.3882H16.1328C15.5072 42.3882 15 41.881 15 41.2554C15 39.8154 15.4227 37.6806 16.7239 35.8733ZM17.3694 40.1225H30.0007C29.8391 39.1939 29.4744 38.1233 28.8075 37.1971C27.8847 35.9155 26.3367 34.836 23.6851 34.836C21.0334 34.836 19.4854 35.9155 18.5626 37.1971C17.8957 38.1233 17.531 39.1939 17.3694 40.1225Z" fill="#2147CC"/>
<path d="M40.3006 26.1537C40.3006 27.8221 38.9481 29.1746 37.2797 29.1746C35.6113 29.1746 34.2588 27.8221 34.2588 26.1537C34.2588 24.4853 35.6113 23.1328 37.2797 23.1328C38.9481 23.1328 40.3006 24.4853 40.3006 26.1537Z" fill="#2147CC"/>
<path fill-rule="evenodd" clip-rule="evenodd" d="M37.2797 24.2657C36.237 24.2657 35.3916 25.111 35.3916 26.1537C35.3916 27.1965 36.237 28.0418 37.2797 28.0418C38.3224 28.0418 39.1678 27.1965 39.1678 26.1537C39.1678 25.111 38.3224 24.2657 37.2797 24.2657ZM33.126 26.1537C33.126 23.8597 34.9857 22 37.2797 22C39.5737 22 41.4334 23.8597 41.4334 26.1537C41.4334 28.4478 39.5737 30.3074 37.2797 30.3074C34.9857 30.3074 33.126 28.4478 33.126 26.1537Z" fill="#2147CC"/>
<path d="M46.8666 41.2592H36.2018C36.2018 35.2175 31.3079 33.707 37.05 33.707C43.6124 33.707 46.8666 38.7418 46.8666 41.2592Z" fill="#2147CC"/>
<path fill-rule="evenodd" clip-rule="evenodd" d="M35.2224 32.6561C35.7096 32.5939 36.3177 32.5703 37.051 32.5703C40.6434 32.5703 43.3745 33.9555 45.206 35.7192C46.9907 37.4379 48.0004 39.6026 48.0004 41.2554C48.0004 41.881 47.4932 42.3882 46.8676 42.3882H36.2028C35.5772 42.3882 35.07 41.881 35.07 41.2554C35.07 39.009 34.3394 37.5246 33.7676 36.3628C33.6485 36.121 33.5364 35.8932 33.4392 35.6754C33.3096 35.3851 33.1412 34.9719 33.127 34.5368C33.119 34.2942 33.1568 34.0146 33.2939 33.7367C33.4322 33.4562 33.6378 33.2465 33.861 33.0954C34.2648 32.8221 34.7671 32.7143 35.2224 32.6561ZM37.2815 40.1225C37.0665 37.891 36.2608 36.2763 35.7667 35.2861C35.6952 35.1429 35.6303 35.0127 35.5746 34.8957C35.9152 34.8568 36.3918 34.836 37.051 34.836C40.021 34.836 42.1982 35.9682 43.6344 37.3512C44.6021 38.2831 45.2012 39.293 45.5007 40.1225H37.2815Z" fill="#2147CC"/>
</svg>
