<svg width="34" height="34" viewBox="0 0 34 34" fill="none" xmlns="http://www.w3.org/2000/svg">
<path id="Vector" fill-rule="evenodd" clip-rule="evenodd" d="M25.1621 29.09C25.1664 29.2442 25.1604 29.8006 24.9768 29.8924C24.6504 30.0552 24.256 29.7887 23.9368 29.9838C23.7367 30.1066 23.6453 30.3212 23.4957 30.4925C23.0541 30.9965 22.5671 31.4581 22.1268 31.9634C22.0477 32.0548 22.004 32.198 22.0201 32.3187C22.021 32.3264 22.0728 32.4245 22.0333 32.4339C21.6882 32.5168 21.2547 31.9736 21.2045 31.6697C21.1374 31.2668 21.4999 30.9999 21.624 30.6523C21.9933 29.6187 22.4885 27.6871 22.3087 26.6088C22.0486 25.0508 20.805 25.9339 20.5598 24.0525C20.5118 23.6853 20.4493 23.2403 20.6112 22.8884C20.7723 22.5356 21.1765 22.3737 21.3329 22.0171C21.675 21.2364 20.8964 20.1722 22.1935 20.0294L22.318 20.0277L22.4124 20.0252L22.4766 20.023L22.5735 20.0192L22.7443 19.9652C22.9054 19.9206 22.9972 19.8994 23.165 19.8921C23.3601 19.8836 23.5501 19.9555 23.7405 19.9801C24.1838 20.0371 24.6228 19.9776 25.0185 20.2211C25.7639 20.6796 26.5493 21.1314 27.1902 21.7353L26.809 22.3503C26.8647 22.2713 26.9535 22.2539 27.0466 22.2641C27.8783 22.3597 29.2919 22.4591 29.8333 23.2926C30.0415 24.1256 28.4359 25.0385 28.3981 26.0372C28.3938 26.1634 28.5434 26.3449 28.4159 26.4507C28.0904 26.7189 27.628 26.7062 27.3016 26.9722C26.5047 27.619 26.3347 28.9425 25.1621 29.09ZM5.70818 7.1247C4.24703 7.90203 4.78465 6.56243 5.37497 5.99973L5.29168 5.54115C7.06733 3.99075 11.2472 2.69832 13.4581 2.91635C13.2362 2.05955 12.8686 2.35578 12.2086 1.99962C13.1691 2.02682 14.1699 2.05615 15.1249 1.91632C15.3408 1.91335 16.2673 3.48755 17.1666 3.29163L18.2083 2.58315C18.8798 2.58315 19.5092 2.7744 20.1667 2.91635C20.1552 3.93082 19.0319 4.02305 18.4582 4.91598V5.16588L20.292 6.41623C21.3235 5.97168 21.0099 7.40435 21.1667 7.58285C21.8153 8.3181 22.4485 6.39965 22.5832 5.95807L21.8335 4.70815L23.2501 5.04135L24.2084 6.08302C24.528 6.103 24.9254 6.07835 25.2085 5.91642C25.4737 6.56497 26.0937 7.21352 26.7083 7.5412C26.9017 8.84765 28.6221 9.70998 26.5838 9.333L26.5417 8.5H24.8752C25.3946 8.5833 25.701 10.2102 25.9169 10.625H24.4171C24.5574 11.5375 22.76 11.5409 22.6253 12.3335C22.6296 13.3119 22.0881 12.7088 21.4587 13.3335L21.7502 14.875L18.8751 13.5418C16.9515 14.0526 17.1233 15.1835 18.0417 16.6668L18.6669 16.2915C18.6061 16.2312 19.0812 15.8729 19.1254 16.2087V17.4169L21.2504 17.8339V19.125L22.3758 19.5003L20.8339 19.2504C20.0859 17.2699 15.0459 17.5682 15.3757 15.8338C15.0382 15.4696 12.9846 13.1334 12.5838 13.3335C8.92628 11.3042 13.1019 7.97172 8.87485 6.375H6.0418L5.9585 6.6249L5.70818 7.1247ZM0 17C0 26.3887 7.6109 34 17 34C26.3891 34 34 26.3887 34 17C34 7.61133 26.3891 0 17 0C7.6109 0 0 7.6109 0 17Z" fill="#3356D0"/>
</svg>
