<svg width="41" height="41" viewBox="0 0 41 41" fill="none" xmlns="http://www.w3.org/2000/svg">
<g id="material-symbols:keyboard">
<path id="Vector" fill-rule="evenodd" clip-rule="evenodd" d="M31.6365 30.8181H10V33.1363C10 35.271 11.729 37 13.8637 37H27.7729C29.9075 37 31.6365 35.271 31.6365 33.1363V30.8181ZM19.2728 34.6818H22.3637C22.7907 34.6818 23.1365 34.336 23.1365 33.9091C23.1365 33.4821 22.7907 33.1363 22.3637 33.1363H19.2728C18.8459 33.1363 18.5001 33.4821 18.5001 33.9091C18.5001 34.336 18.8459 34.6818 19.2728 34.6818ZM26.0209 3C26.1871 3.28978 26.2624 3.63559 26.2122 3.99103L25.849 6.52752C25.6326 8.04979 24.3286 9.18186 22.7909 9.18186H18.8461C17.3083 9.18186 16.0043 8.04979 15.788 6.52752L15.4248 3.99103C15.3746 3.63557 15.4499 3.28976 15.616 3H13.8639C11.7292 3 10.0002 4.72899 10.0002 6.86366V29.2727H31.6367V6.86366C31.6367 4.72899 29.9077 3 27.773 3H26.0209ZM16.9548 3C16.7308 3 16.5183 3.09659 16.3714 3.26659C16.2246 3.43659 16.1589 3.66069 16.1898 3.88285L16.553 6.41934C16.7153 7.56106 17.6928 8.40911 18.8461 8.40911H22.7909C23.9442 8.40911 24.9217 7.56106 25.084 6.41934L25.4472 3.88285C25.4781 3.66069 25.4124 3.4366 25.2656 3.26659C25.1188 3.09659 24.9063 3 24.6822 3H16.9548Z" fill="#3356D0"/>
</g>
</svg>
